<svg xmlns="http://www.w3.org/2000/svg" width="159" height="69" viewBox="0 0 159 69" fill="none">
  <path d="M14.2695 47.7887C15.0694 48.2843 15.8127 48.7657 16.5773 49.2117C17.3419 49.6577 17.8834 50.3231 18.3931 51.0134C18.7577 51.5054 18.7931 52.0575 18.4604 52.5885C18.2445 52.9425 18.0144 53.3 17.7454 53.6115C16.7614 54.7512 15.4977 54.9211 14.1739 54.238C12.4501 53.346 12.0395 52.5071 12.2023 50.1922C12.2377 49.7037 12.4005 49.2258 12.5209 48.6666C12.1917 48.6383 11.8625 48.5745 11.5369 48.5852C10.2484 48.6206 9.00247 48.7834 7.84146 49.4382C7.44148 49.6647 6.92824 49.7178 6.461 49.7922C6.15305 49.8382 6.09288 49.7072 6.2557 49.4311C6.66276 48.7303 7.29282 48.1746 8.04322 47.8595C9.66084 47.1764 11.3139 46.8189 13.066 47.279C13.1651 47.3073 13.3456 47.2366 13.4022 47.1516C14.8004 45.1411 16.6056 43.5978 18.6161 42.2138C20.9063 40.6351 23.4938 39.5307 26.2193 38.9644C28.5909 38.4653 30.9978 37.9025 33.4295 37.899C37.1603 37.899 40.7778 38.6175 44.2644 39.998C47.8996 41.4315 51.3932 43.1553 54.9081 44.8296C57.2407 45.9446 59.5698 47.0773 62.0617 47.764C63.9802 48.2914 65.9412 48.6807 67.9021 49.0312C69.4631 49.3179 71.0418 49.5196 72.624 49.64C74.5248 49.7851 76.3867 49.378 78.2414 49.0453C80.6555 48.6206 82.7651 47.5834 84.5137 45.849C84.7013 45.6649 84.896 45.4844 85.1579 45.665C85.4163 45.8455 85.3278 46.118 85.2216 46.3375C84.9172 46.9888 84.4429 47.5516 83.8482 47.9622C82.1811 49.109 80.4148 50.0329 78.3866 50.3762C76.4114 50.716 74.4469 51.1549 72.4223 51.0204C71.1126 50.9319 69.7994 50.7939 68.5003 50.5851C66.5854 50.2736 64.6704 49.9515 62.7767 49.509C59.984 48.8577 57.3929 47.6365 54.8055 46.4401C51.91 45.1128 49.0535 43.6828 46.1439 42.3837C43.7547 41.3183 41.3194 40.3484 38.7142 39.8776C36.8807 39.552 35.0224 39.0989 33.1712 39.2794C29.3696 39.6546 25.5114 39.9059 21.9717 41.5519C19.1719 42.8509 16.641 44.557 14.7473 47.0702C14.5739 47.2932 14.4358 47.541 14.2695 47.7887ZM13.6217 49.1338C13.2394 49.9231 13.2394 50.6948 13.3173 51.4806C13.4235 52.5035 14.1987 53.2858 15.2712 53.4628C16.1986 53.6185 16.8499 53.2186 17.3383 52.1921C17.3454 52.1814 17.3596 52.1708 17.356 52.1567C17.3312 51.9938 17.3631 51.785 17.2746 51.6717C16.3225 50.4789 15.0163 49.7816 13.6217 49.1338Z" fill="#000"/>
  <path d="M157.728 13.7551C157.395 14.4878 156.814 14.9479 156.11 15.3196C154.425 16.2151 152.765 17.1708 151.08 18.0734C150.521 18.3672 149.94 18.6185 149.346 18.8274C148.804 19.022 148.344 18.8486 148.135 18.4557C147.919 18.0486 148.043 17.5283 148.56 17.2239C149.41 16.7177 150.309 16.2965 151.183 15.8293C152.507 15.1214 153.813 14.378 155.147 13.709C155.926 13.3161 156.776 13.1958 157.636 13.4613L157.728 13.7551ZM142.291 3.37682C141.789 3.91839 141.445 4.54844 141.417 5.28823C141.343 7.1961 141.3 9.11104 141.283 11.0295C141.279 11.4047 141.36 11.7764 141.513 12.1197C141.615 12.3463 141.913 12.6153 142.121 12.6118C142.362 12.6082 142.635 12.3569 142.829 12.1587C142.946 12.0419 142.974 11.8118 142.996 11.6277C143.236 9.43315 143.456 7.23503 143.19 5.03337C143.116 4.44225 142.73 3.89007 142.486 3.32019L142.291 3.37682ZM150.192 6.27579C148.9 7.73766 147.576 9.16414 146.698 10.941C146.489 11.3623 146.164 11.7339 145.919 12.141C145.707 12.5056 145.481 12.8737 145.346 13.2772C145.226 13.6312 145.321 14.0028 145.7 14.2011C146.057 14.3887 146.39 14.2612 146.631 13.9958C147.151 13.4294 147.693 12.8701 148.121 12.2436C148.971 10.98 149.756 9.67385 150.556 8.38542C150.871 7.87925 151.186 7.366 151.48 6.84567C151.707 6.44215 151.859 6.01032 151.661 5.51123C151.031 5.53246 150.571 5.84395 150.192 6.27579Z" fill="#000"/>
  <path d="M97.6644 38.9639C97.9829 38.9639 98.2909 39.0276 98.5847 39.1479C98.8856 39.2718 99.151 39.4524 99.3776 39.686C99.8767 40.1957 100.128 40.854 100.128 41.654C100.128 42.4469 99.8767 43.1053 99.3776 43.6221C99.151 43.8486 98.8856 44.0256 98.5847 44.1459C98.2909 44.2698 97.9829 44.33 97.6644 44.33H95.399V38.9639H97.6644ZM97.6361 43.7495C98.2024 43.7495 98.659 43.5442 99.0094 43.1265C99.3492 42.7301 99.5191 42.2416 99.5191 41.654C99.5191 41.0593 99.3492 40.5638 99.0094 40.1674C98.659 39.7532 98.2024 39.5444 97.6361 39.5444H96.0078V43.7495H97.6361Z" fill="#000"/>
  <path d="M102.779 43.8486C103.324 43.8486 103.717 43.6221 103.954 43.169H104.62C104.478 43.5371 104.252 43.8344 103.94 44.061C103.636 44.2875 103.246 44.4008 102.765 44.4008C102.16 44.4008 101.664 44.199 101.278 43.792C100.9 43.3955 100.712 42.9 100.712 42.3053C100.712 41.7106 100.889 41.2151 101.25 40.8187C101.625 40.4151 102.117 40.2098 102.722 40.2098C103.324 40.2098 103.816 40.4151 104.195 40.8187C104.552 41.2151 104.733 41.7106 104.733 42.3053V42.546H101.335C101.381 42.9247 101.533 43.2327 101.788 43.4663C102.043 43.7212 102.372 43.8486 102.779 43.8486ZM102.722 40.762C102.354 40.762 102.043 40.8824 101.788 41.116C101.551 41.3354 101.406 41.6222 101.349 41.9797H104.11C104.053 41.6222 103.905 41.3354 103.671 41.116C103.416 40.8824 103.098 40.762 102.722 40.762Z" fill="#000"/>
  <path d="M107.851 41.3708C107.802 40.9461 107.462 40.7337 106.832 40.7337C106.209 40.7337 105.898 40.9284 105.898 41.3142C105.898 41.477 105.961 41.5974 106.096 41.6823C106.237 41.7673 106.407 41.8381 106.605 41.8947C106.804 41.9513 107.02 42.0044 107.257 42.0505C107.49 42.0894 107.71 42.1496 107.908 42.2345C108.106 42.3195 108.269 42.4398 108.404 42.5885C108.535 42.7301 108.602 42.9283 108.602 43.1831C108.602 43.5796 108.45 43.884 108.149 44.0893C107.855 44.2981 107.455 44.4008 106.945 44.4008C106.407 44.4008 105.975 44.2663 105.657 43.9902C105.363 43.7566 105.207 43.4451 105.19 43.0557H105.827C105.862 43.4345 106.071 43.6858 106.45 43.8061C106.591 43.8557 106.726 43.8769 106.86 43.8769C107.002 43.8769 107.133 43.8734 107.257 43.8628C107.377 43.8451 107.497 43.8132 107.611 43.7636C107.866 43.661 107.993 43.4875 107.993 43.2398C107.993 43.0699 107.926 42.9424 107.795 42.8575C107.66 42.7655 107.497 42.6876 107.299 42.631C107.101 42.5743 106.882 42.5248 106.648 42.4752C106.411 42.4292 106.195 42.369 105.997 42.2911C105.798 42.2062 105.632 42.1 105.501 41.9655C105.367 41.8239 105.303 41.6257 105.303 41.3708C105.303 41.0027 105.434 40.7195 105.699 40.5213C105.961 40.316 106.358 40.2098 106.889 40.2098C107.377 40.2098 107.77 40.3337 108.064 40.578C108.297 40.7762 108.435 41.0417 108.474 41.3708H107.851Z" fill="#000"/>
  <path d="M109.372 40.2806H109.981V44.33H109.372V40.2806ZM110.009 38.8081V39.601H109.344V38.8081H110.009Z" fill="#000"/>
  <path d="M114.188 40.9319V40.2806H114.797V44.2026C114.797 44.7866 114.63 45.2291 114.301 45.5335C113.968 45.845 113.522 46.0007 112.956 46.0007C112.397 46.0007 111.958 45.891 111.639 45.675C111.328 45.4556 111.115 45.1689 111.002 44.8114H111.668C111.845 45.2361 112.241 45.4485 112.857 45.4485C113.328 45.4485 113.667 45.3388 113.876 45.1229C114.082 44.9034 114.188 44.5884 114.188 44.1742V43.6079C113.855 44.0893 113.374 44.33 112.744 44.33C112.156 44.33 111.682 44.1318 111.314 43.7353C110.953 43.3389 110.776 42.854 110.776 42.277C110.776 41.693 110.953 41.208 111.314 40.8187C111.682 40.4151 112.17 40.2098 112.786 40.2098C113.398 40.2098 113.866 40.4505 114.188 40.9319ZM112.829 43.7778C113.045 43.7778 113.239 43.7424 113.409 43.6645C113.586 43.5902 113.738 43.4805 113.862 43.3389C114.106 43.0557 114.23 42.7018 114.23 42.277C114.23 41.8452 114.106 41.4841 113.862 41.2009C113.597 40.9107 113.253 40.762 112.829 40.762C112.383 40.762 112.029 40.9107 111.767 41.2009C111.512 41.4947 111.384 41.8522 111.384 42.277C111.384 42.7018 111.512 43.0557 111.767 43.3389C112.029 43.6327 112.383 43.7778 112.829 43.7778Z" fill="#000"/>
  <path d="M116.453 40.2806V40.9178C116.601 40.7195 116.782 40.5567 116.991 40.4222C117.196 40.2806 117.433 40.2098 117.699 40.2098C117.971 40.2098 118.208 40.2488 118.407 40.3231C118.605 40.401 118.775 40.5142 118.916 40.6629C119.245 40.9956 119.412 41.4346 119.412 41.9797V44.33H118.817V41.9938C118.817 41.6186 118.707 41.3213 118.491 41.1018C118.283 40.8753 118.01 40.762 117.67 40.762C117.33 40.762 117.04 40.8753 116.807 41.1018C116.569 41.339 116.453 41.6363 116.453 41.9938V44.33H115.844V40.2806H116.453Z" fill="#000"/>
  <path d="M120.451 43.6787H121.258L120.536 45.406H119.984L120.451 43.6787Z" fill="#000"/>
  <path d="M128.739 44.33H128.06L127.409 42.7725H124.761L124.095 44.33H123.43L125.695 38.9639H126.46L128.739 44.33ZM127.182 42.2204L126.078 39.601L124.987 42.2204H127.182Z" fill="#000"/>
  <path d="M131.419 40.2098V40.8187H131.348C130.913 40.8187 130.559 40.9992 130.286 41.3567C130.021 41.6894 129.89 42.0859 129.89 42.546V44.33H129.281V40.2806H129.89V41.2717C130.021 40.8576 130.304 40.5496 130.739 40.3514C130.909 40.2594 131.122 40.2098 131.376 40.2098H131.419Z" fill="#000"/>
  <path d="M132.511 44.33V40.8187H131.69V40.2806H132.511V38.8365H133.12V40.2806H134.054V40.8187H133.12V44.33H132.511Z" fill="#000"/>
  <path d="M91.2668 50.2007C91.4155 50.0697 91.5995 49.967 91.819 49.8892C92.0455 49.8148 92.3004 49.7759 92.5835 49.7759C92.8667 49.7759 93.1074 49.8113 93.3056 49.875C93.5038 49.9316 93.6737 50.0166 93.8153 50.1299C94.0702 50.3281 94.2295 50.5829 94.2967 50.8944H93.6596C93.61 50.7635 93.4968 50.636 93.3198 50.5121C93.1393 50.3918 92.9163 50.3281 92.6543 50.3281C92.3995 50.3281 92.1942 50.3529 92.0455 50.3989C91.9039 50.4484 91.7836 50.5121 91.6915 50.5971C91.511 50.7599 91.4225 50.9758 91.4225 51.2484C91.4225 51.5422 91.5252 51.7687 91.734 51.928C91.9216 52.0696 92.1659 52.1404 92.4703 52.1404H93.7729V51.7864H94.3392V52.1404H94.8631V52.6784H94.3392V53.712C94.3392 54.1757 94.1764 54.5473 93.8578 54.8305C93.5251 55.1243 93.0791 55.2694 92.5127 55.2694C92.003 55.2694 91.5641 55.1208 91.196 54.8164C90.8173 54.5155 90.6297 54.1297 90.6297 53.6554C90.6297 53.3651 90.7146 53.1032 90.8845 52.8766C91.0615 52.6501 91.3093 52.4802 91.6208 52.3669C91.4225 52.3103 91.242 52.1758 91.0827 51.9563C90.9022 51.7227 90.8137 51.4891 90.8137 51.2626C90.8137 51.036 90.8491 50.8343 90.927 50.6537C91.0013 50.4767 91.1146 50.3245 91.2668 50.2007ZM92.3995 52.6784C92.0667 52.6784 91.7907 52.7775 91.5641 52.9757C91.3447 53.1669 91.2385 53.4005 91.2385 53.6837C91.2385 53.9598 91.3553 54.2005 91.5924 54.4058C91.8261 54.6146 92.134 54.7172 92.5127 54.7172C92.9092 54.7172 93.2242 54.6181 93.4614 54.4199C93.6667 54.25 93.7729 54.0306 93.7729 53.7545V52.6784H92.3995Z" fill="#000"/>
  <path d="M101.207 50.4272H99.3385V55.1986H98.7297V50.4272H96.8608V49.8325H101.207V50.4272Z" fill="#000"/>
  <path d="M103.654 54.7172C104.199 54.7172 104.592 54.4907 104.83 54.0376H105.495C105.353 54.4058 105.127 54.7031 104.815 54.9296C104.511 55.1562 104.122 55.2694 103.64 55.2694C103.035 55.2694 102.539 55.0677 102.154 54.6606C101.775 54.2642 101.587 53.7686 101.587 53.174C101.587 52.5793 101.764 52.0837 102.125 51.6873C102.5 51.2838 102.992 51.0785 103.598 51.0785C104.199 51.0785 104.691 51.2838 105.07 51.6873C105.428 52.0837 105.608 52.5793 105.608 53.174V53.4146H102.21C102.256 53.7934 102.408 54.1013 102.663 54.335C102.918 54.5898 103.247 54.7172 103.654 54.7172ZM103.598 51.6307C103.23 51.6307 102.918 51.751 102.663 51.9846C102.426 52.2041 102.281 52.4908 102.224 52.8483H104.985C104.929 52.4908 104.78 52.2041 104.546 51.9846C104.292 51.751 103.973 51.6307 103.598 51.6307Z" fill="#000"/>
  <path d="M108.217 54.7172C108.479 54.7172 108.713 54.6464 108.911 54.5049C109.109 54.3562 109.254 54.1615 109.35 53.9244H110.001C109.877 54.3314 109.651 54.6535 109.321 54.8871C108.971 55.142 108.56 55.2694 108.09 55.2694C107.495 55.2694 107.014 55.0677 106.645 54.6606C106.277 54.2642 106.093 53.7686 106.093 53.174C106.093 52.5793 106.277 52.0837 106.645 51.6873C107.014 51.2838 107.495 51.0785 108.09 51.0785C108.56 51.0785 108.971 51.2059 109.321 51.4608C109.651 51.6979 109.877 52.02 110.001 52.4235H109.35C109.254 52.1899 109.109 51.9988 108.911 51.8572C108.713 51.7085 108.479 51.6307 108.217 51.6307C107.962 51.6307 107.743 51.6731 107.566 51.7581C107.385 51.836 107.229 51.9422 107.098 52.0837C106.833 52.3775 106.702 52.7421 106.702 53.174C106.702 53.6093 106.833 53.9739 107.098 54.2642C107.371 54.5686 107.743 54.7172 108.217 54.7172Z" fill="#000"/>
  <path d="M111.358 51.1493V51.7864C111.506 51.5882 111.687 51.4254 111.896 51.2909C112.101 51.1493 112.338 51.0785 112.604 51.0785C112.876 51.0785 113.113 51.1174 113.312 51.1918C113.51 51.2696 113.68 51.3829 113.821 51.5316C114.151 51.8643 114.317 52.3032 114.317 52.8483V55.1986H113.722V52.8625C113.722 52.4873 113.612 52.1899 113.397 51.9705C113.188 51.7439 112.915 51.6307 112.575 51.6307C112.236 51.6307 111.945 51.7439 111.712 51.9705C111.475 52.2076 111.358 52.505 111.358 52.8625V55.1986H110.749V51.1493H111.358Z" fill="#000"/>
  <path d="M117.083 51.0785C117.685 51.0785 118.177 51.2838 118.556 51.6873C118.913 52.0837 119.094 52.5793 119.094 53.174C119.094 53.7686 118.913 54.2642 118.556 54.6606C118.177 55.0677 117.685 55.2694 117.083 55.2694C116.478 55.2694 115.986 55.0677 115.611 54.6606C115.25 54.2642 115.073 53.7686 115.073 53.174C115.073 52.5793 115.25 52.0837 115.611 51.6873C115.986 51.2838 116.478 51.0785 117.083 51.0785ZM117.083 54.7172C117.526 54.7172 117.876 54.5686 118.131 54.2642C118.365 53.9739 118.485 53.6093 118.485 53.174C118.485 52.7421 118.365 52.3775 118.131 52.0837C117.876 51.7829 117.526 51.6307 117.083 51.6307C116.648 51.6307 116.305 51.7829 116.05 52.0837C115.802 52.3775 115.682 52.7421 115.682 53.174C115.682 53.6093 115.802 53.9739 116.05 54.2642C116.305 54.5686 116.648 54.7172 117.083 54.7172Z" fill="#000"/>
  <path d="M120.499 55.1986H119.89V49.5352H120.499V55.1986Z" fill="#000"/>
  <path d="M123.304 51.0785C123.906 51.0785 124.398 51.2838 124.777 51.6873C125.134 52.0837 125.315 52.5793 125.315 53.174C125.315 53.7686 125.134 54.2642 124.777 54.6606C124.398 55.0677 123.906 55.2694 123.304 55.2694C122.699 55.2694 122.207 55.0677 121.832 54.6606C121.471 54.2642 121.294 53.7686 121.294 53.174C121.294 52.5793 121.471 52.0837 121.832 51.6873C122.207 51.2838 122.699 51.0785 123.304 51.0785ZM123.304 54.7172C123.747 54.7172 124.097 54.5686 124.352 54.2642C124.586 53.9739 124.706 53.6093 124.706 53.174C124.706 52.7421 124.586 52.3775 124.352 52.0837C124.097 51.7829 123.747 51.6307 123.304 51.6307C122.869 51.6307 122.526 51.7829 122.271 52.0837C122.023 52.3775 121.903 52.7421 121.903 53.174C121.903 53.6093 122.023 53.9739 122.271 54.2642C122.526 54.5686 122.869 54.7172 123.304 54.7172Z" fill="#000"/>
  <path d="M129.269 51.8006V51.1493H129.878V55.0712C129.878 55.6552 129.711 56.0977 129.382 56.4021C129.049 56.7136 128.603 56.8693 128.037 56.8693C127.478 56.8693 127.039 56.7596 126.72 56.5437C126.409 56.3242 126.196 56.0375 126.083 55.68H126.749C126.926 56.1048 127.322 56.3172 127.938 56.3172C128.409 56.3172 128.748 56.2074 128.957 55.9915C129.163 55.772 129.269 55.457 129.269 55.0429V54.4765C128.936 54.9579 128.455 55.1986 127.825 55.1986C127.237 55.1986 126.763 55.0004 126.395 54.604C126.034 54.2075 125.857 53.7226 125.857 53.1456C125.857 52.5616 126.034 52.0767 126.395 51.6873C126.763 51.2838 127.251 51.0785 127.867 51.0785C128.479 51.0785 128.947 51.3192 129.269 51.8006ZM127.91 54.6464C128.125 54.6464 128.32 54.611 128.49 54.5332C128.667 54.4588 128.819 54.3491 128.943 54.2075C129.187 53.9244 129.311 53.5704 129.311 53.1456C129.311 52.7138 129.187 52.3528 128.943 52.0696C128.678 51.7793 128.334 51.6307 127.91 51.6307C127.464 51.6307 127.11 51.7793 126.848 52.0696C126.593 52.3634 126.465 52.7209 126.465 53.1456C126.465 53.5704 126.593 53.9244 126.848 54.2075C127.11 54.5013 127.464 54.6464 127.91 54.6464Z" fill="#000"/>
  <path d="M130.925 51.1493H131.534V55.1986H130.925V51.1493ZM131.562 49.6768V50.4697H130.896V49.6768H131.562Z" fill="#000"/>
  <path d="M135.741 54.5473C135.418 55.0287 134.937 55.2694 134.296 55.2694C133.709 55.2694 133.234 55.0677 132.866 54.6606C132.505 54.2571 132.328 53.7615 132.328 53.174C132.328 52.5899 132.505 52.0944 132.866 51.6873C133.234 51.2838 133.719 51.0785 134.325 51.0785C134.937 51.0785 135.408 51.3192 135.741 51.8006V51.1493H136.349V55.1986H135.741V54.5473ZM134.381 54.7172C134.813 54.7172 135.16 54.5686 135.415 54.2642C135.659 53.9739 135.783 53.6093 135.783 53.174C135.783 52.7421 135.659 52.3775 135.415 52.0837C135.16 51.7829 134.813 51.6307 134.381 51.6307C133.946 51.6307 133.592 51.7829 133.319 52.0837C133.065 52.3775 132.937 52.7421 132.937 53.174C132.937 53.6093 133.065 53.9739 133.319 54.2642C133.592 54.5686 133.946 54.7172 134.381 54.7172Z" fill="#000"/>
  <path d="M5.22451 14.9446C5.09001 15.2101 4.96258 15.4048 4.84223 15.5251C4.72896 15.649 4.63339 15.7517 4.55906 15.8366C4.48119 15.9145 4.44579 16.0171 4.44579 16.1481C4.44579 17.8861 4.38208 19.5992 4.26173 21.2877C4.13784 22.9796 4.03519 24.6928 3.95024 26.4272C3.86529 28.1546 3.88653 29.9598 4.02104 31.85C4.02104 32.0482 4.03519 32.1544 4.06351 32.1756C4.09183 32.2039 4.21926 32.2252 4.44579 32.2464C4.65109 32.2535 4.7856 32.2535 4.84223 32.2464C4.89887 32.2464 5.02629 32.2464 5.22451 32.2464C5.22451 32.2464 5.29531 32.2464 5.43689 32.2464C5.57848 32.2535 5.76962 32.2535 6.01739 32.2464H6.44215C6.44215 31.8287 6.44215 31.4252 6.44215 31.0288C6.44215 30.6323 6.44215 30.2359 6.44215 29.8394V28.2254C6.57312 28.0944 6.70055 28.0378 6.82443 28.0555C6.94478 28.0661 7.04389 28.0979 7.12176 28.1546C7.20671 28.2041 7.24919 28.2254 7.24919 28.2254C7.51112 28.4802 7.66333 28.8165 7.70226 29.2306C7.74828 29.6554 7.74828 30.0978 7.70226 30.5615C7.66333 31.0217 7.64563 31.4535 7.64563 31.85C7.64563 31.9809 7.66687 32.1473 7.71642 32.3455C7.77306 32.5437 7.80491 32.7419 7.81553 32.9402C7.83323 33.1455 7.7766 33.3224 7.64563 33.464C6.84213 33.595 6.03863 33.6623 5.23867 33.6623C4.44579 33.6623 3.67415 33.6623 2.93082 33.6623C2.19458 33.6623 1.49019 33.7224 0.821197 33.8463C0.612358 33.6552 0.424757 33.5242 0.254854 33.4499C0.0849515 33.3826 0 33.2446 0 33.0393C0 32.8411 0.0849515 32.7207 0.254854 32.6853C0.424757 32.657 0.612358 32.6428 0.821197 32.6428C1.0088 32.434 1.11853 32.211 1.14684 31.9774C1.18224 31.7508 1.20348 31.4394 1.20348 31.0429C1.34506 30.3633 1.4371 29.6271 1.48665 28.8342C1.54328 28.0342 1.57514 27.2272 1.58576 26.4131C1.60346 25.6025 1.61408 24.8662 1.61408 24.2043V23.7796C1.61408 23.1778 1.61408 22.5761 1.61408 21.9814C1.61408 21.3868 1.61408 20.7921 1.61408 20.1974C1.61408 19.5745 1.59284 18.8949 1.55744 18.1586C1.52913 17.4224 1.40878 16.7534 1.20348 16.1481C1.20348 15.9499 1.12207 15.8189 0.962783 15.7517C0.799959 15.6879 0.608819 15.5605 0.382282 15.3694V14.5482C0.382282 14.5482 0.453074 14.5482 0.59466 14.5482C0.743325 14.5482 0.821197 14.5482 0.821197 14.5482C1.21764 14.5482 1.64947 14.5305 2.12379 14.4915C2.59456 14.4455 3.07241 14.4066 3.5538 14.3783C4.04227 14.3429 4.49535 14.3464 4.91303 14.3924C5.10063 14.4137 5.19974 14.4491 5.21036 14.5057C5.21743 14.5623 5.22451 14.711 5.22451 14.9446Z" fill="#000"/>
  <path d="M12.5144 30.9438C12.6347 31.0748 12.8152 31.2164 13.0524 31.3686C13.286 31.5172 13.5479 31.6128 13.8311 31.6517C14.1143 31.6977 14.4045 31.6163 14.7089 31.411C15.0664 31.1456 15.339 30.781 15.5301 30.3208C15.7177 29.8571 15.8487 29.358 15.9266 28.82C16.0009 28.2749 16.0434 27.7369 16.054 27.2059C16.0717 26.6679 16.0823 26.2007 16.0823 25.8042V19.886C16.0823 19.3585 16.1035 18.8453 16.1531 18.3427C16.2097 17.833 16.2416 17.3728 16.2522 16.9551C16.2699 16.541 16.2133 16.2047 16.0823 15.9499C15.8841 15.734 15.7036 15.6101 15.5443 15.5817C15.3815 15.5464 15.3036 15.5251 15.3036 15.5251C15.3036 15.3941 15.254 15.2419 15.162 15.072C15.0771 14.9021 15.0133 14.757 14.9779 14.6331C14.939 14.5128 14.9921 14.4491 15.1337 14.4491C15.5655 14.4491 16.0469 14.4314 16.5779 14.3924C17.1159 14.3464 17.6008 14.3358 18.0362 14.3641C18.5247 14.3747 18.8786 14.4597 19.0981 14.619C19.3246 14.7818 19.445 14.9552 19.4662 15.1428C19.4839 15.334 19.4167 15.4826 19.268 15.5959C18.9919 15.8154 18.8078 16.1304 18.7158 16.5445C18.6309 16.9516 18.5884 17.4082 18.5884 17.9179C18.5884 18.4276 18.5884 18.9586 18.5884 19.5037C18.5884 20.0417 18.5353 20.5585 18.4326 21.047V24.983C18.4326 24.983 18.4326 25.0538 18.4326 25.1954C18.4326 25.337 18.4326 25.4078 18.4326 25.4078C18.4326 26.59 18.3548 27.6519 18.2061 28.5935C18.0539 29.535 17.7389 30.4483 17.2575 31.3261C17.0947 31.6447 16.8646 31.9915 16.5637 32.3597C16.2699 32.7349 15.9159 33.0534 15.5018 33.3083C15.0948 33.5631 14.6275 33.6906 14.1001 33.6906C13.9656 33.6906 13.8807 33.6941 13.8453 33.7047C13.8063 33.7118 13.7497 33.7189 13.6754 33.7189C13.5975 33.726 13.4276 33.733 13.1656 33.733C12.5214 33.6269 11.9976 33.372 11.594 32.9685C11.187 32.572 10.8366 32.1544 10.5463 31.7225C10.3268 31.3544 10.1923 30.9721 10.1357 30.5757C10.0791 30.1863 10.0366 29.7863 10.0083 29.3722C9.97997 28.9545 9.90209 28.5581 9.78174 28.1687V18.3002C9.78174 17.8967 9.7959 17.5144 9.82422 17.1534C9.85254 16.7852 9.83838 16.3852 9.78174 15.9499C9.76051 15.7906 9.68617 15.6773 9.55521 15.6101C9.43132 15.5357 9.29327 15.4685 9.14461 15.4118C8.9924 15.3552 8.86144 15.2809 8.74817 15.1853C8.6349 15.0827 8.57827 14.9375 8.57827 14.7464C8.76587 14.5482 8.98179 14.442 9.22956 14.4207C9.4738 14.403 9.78528 14.3853 10.164 14.3641C10.4189 14.3358 10.7021 14.3181 11.0135 14.3075C11.325 14.2898 11.6153 14.3039 11.8914 14.35C12.1745 14.3995 12.4046 14.5128 12.5851 14.6898C12.7267 14.8136 12.7303 15.0012 12.5993 15.2561C12.4754 15.5039 12.3161 15.734 12.1179 15.9499V18.3002C12.1179 18.8949 12.1179 19.486 12.1179 20.07C12.1179 20.6576 12.1179 21.2558 12.1179 21.8682C12.1179 22.654 12.1215 23.3619 12.1321 23.9919C12.1391 24.6149 12.1462 25.1529 12.1462 25.606C12.1462 26.59 12.1533 27.5245 12.1745 28.4094C12.2029 29.2943 12.3161 30.1403 12.5144 30.9438Z" fill="#000"/>
  <path d="M27.7236 32.1614C27.7236 31.3296 27.713 30.4766 27.6953 29.5987C27.6847 28.7209 27.6528 27.8714 27.5962 27.0502C27.5395 26.2219 27.4333 25.4609 27.2847 24.7707C26.8953 24.7707 26.4139 24.7069 25.8405 24.5724C25.2635 24.4309 24.6724 24.3601 24.0707 24.3601C23.8618 24.5689 23.738 24.8627 23.7026 25.2379C23.6636 25.6166 23.6459 26.0237 23.6459 26.4555C23.4265 27.2767 23.2955 28.1687 23.2495 29.1315C23.2105 30.1014 23.1928 31.1208 23.1928 32.1898C23.3521 32.303 23.5043 32.3597 23.6459 32.3597C23.7875 32.3597 23.922 32.3597 24.0565 32.3597C24.1981 32.3597 24.3255 32.4234 24.4388 32.5579C24.4388 32.7561 24.4282 32.9402 24.4105 33.1101C24.3892 33.28 24.3822 33.3649 24.3822 33.3649C24.0707 33.5702 23.7627 33.6941 23.4619 33.733C23.1575 33.7684 22.8566 33.7684 22.5557 33.733C22.2619 33.6941 21.9681 33.6658 21.6779 33.6481C21.3841 33.6269 21.0868 33.6764 20.7859 33.7897L19.9364 32.9826C20.1346 32.7561 20.3399 32.565 20.5594 32.4163C20.7753 32.2641 20.977 32.1898 21.1682 32.1898C21.3841 32.1898 21.508 32.0977 21.5363 31.9207C21.5717 31.7508 21.5929 31.5597 21.5929 31.3544C21.7133 30.5226 21.8407 29.5917 21.9752 28.5652C22.1168 27.528 22.2513 26.4697 22.3858 25.3936C22.5274 24.3105 22.6619 23.2911 22.7964 22.3354C22.7964 21.723 22.8814 21.1284 23.0513 20.5514C23.2282 19.978 23.4265 19.4824 23.6459 19.0648C23.8618 18.2436 24.1486 17.5073 24.5096 16.856C24.8777 16.1976 25.26 15.5676 25.6564 14.9729C25.6564 14.9729 25.7343 14.9092 25.8971 14.7747C26.067 14.6437 26.2723 14.534 26.5201 14.4491C26.775 14.3641 27.0298 14.3995 27.2847 14.5482C27.5855 14.6898 27.8652 14.9375 28.12 15.2844C28.382 15.6348 28.5943 16.0065 28.7572 16.4029C28.9165 16.7994 28.9979 17.1392 28.9979 17.4224C29.1961 17.8117 29.3377 18.1869 29.4226 18.555C29.5147 18.9232 29.5819 19.2771 29.6208 19.6169C29.8084 21.2239 29.9677 22.9159 30.1022 24.6999C30.2332 26.4839 30.3889 28.2891 30.5695 30.1084V32.5862C30.5695 32.6782 30.6049 32.7773 30.6827 32.8835C30.7571 32.9862 30.8243 33.0888 30.881 33.195C30.9447 33.2977 30.9659 33.4003 30.9376 33.5065C30.9093 33.6092 30.7854 33.7118 30.5695 33.818L30.0598 33.6906C29.6633 33.6906 29.274 33.7083 28.8988 33.7472C28.52 33.7932 28.1271 33.818 27.7236 33.818C27.582 33.8251 27.4263 33.8392 27.2564 33.8605C27.0865 33.8888 26.9378 33.8888 26.8174 33.8605C26.6936 33.8392 26.6334 33.7755 26.6334 33.6623C26.6334 33.5207 26.6936 33.326 26.8174 33.0817C26.9378 32.8446 27.0865 32.6322 27.2564 32.4446C27.4263 32.2535 27.582 32.1614 27.7236 32.1614ZM25.6564 16.9976C25.4653 17.5923 25.2671 18.2259 25.0618 18.8949C24.8529 19.5568 24.6441 20.293 24.4388 21.1036C24.4388 21.2275 24.4105 21.4257 24.3538 21.6983C24.2972 21.9637 24.2335 22.2363 24.1698 22.5194C24.1025 22.8026 24.0707 23.0256 24.0707 23.1849C24.6724 23.3654 25.2635 23.4752 25.8405 23.5105C26.4139 23.5389 26.8953 23.553 27.2847 23.553V21.1036C27.2847 20.5019 27.2068 19.8152 27.0581 19.0506C26.9166 18.279 26.736 17.5923 26.5201 16.9976C26.5201 16.9976 26.4989 16.9339 26.4635 16.7994C26.4352 16.6578 26.3113 16.587 26.0954 16.587L25.6564 16.9976Z" fill="#000"/>
  <path d="M43.4693 14.6331C43.4693 14.8243 43.4021 14.9977 43.2711 15.157C43.1366 15.3198 43.0729 15.3977 43.0729 15.3977H42.28C42.1561 15.5322 42.0995 15.6667 42.1101 15.8083C42.1172 15.9499 42.1455 16.1162 42.195 16.3038C42.2517 16.4844 42.28 16.7074 42.28 16.9693C42.28 19.5001 42.2835 22.1053 42.2941 24.7848C42.3012 27.4679 42.4003 30.1651 42.5915 32.8835C42.6092 33.1738 42.5419 33.3862 42.3933 33.5207C42.241 33.6623 42.0605 33.7366 41.8552 33.7472C41.6464 33.7649 41.4446 33.7401 41.2464 33.6764C41.0553 33.6092 40.9101 33.5348 40.8075 33.4499C40.6164 32.8623 40.4004 32.2039 40.1562 31.4677C39.9084 30.7385 39.65 29.9846 39.3775 29.2023C39.112 28.42 38.8607 27.6519 38.6271 26.8945C38.3899 26.1299 38.1811 25.422 38.0041 24.7707C37.9085 24.3955 37.7563 23.9849 37.551 23.5389C37.3528 23.0858 37.1971 22.7283 37.0838 22.4628C37.0059 22.2858 36.9457 22.1372 36.8997 22.0239C36.8502 21.9036 36.8289 21.8398 36.8289 21.8398C36.7157 21.5779 36.6378 21.3089 36.6024 21.0328C36.5741 20.7602 36.521 20.5089 36.4467 20.2824C36.3688 20.0559 36.1989 19.8789 35.9369 19.7444V22.4628C35.9369 23.0575 35.9369 23.5813 35.9369 24.0344C35.9369 24.4875 35.9369 24.9972 35.9369 25.5635V28.6926C35.9369 28.8837 35.9369 29.0749 35.9369 29.2731C35.9369 29.4713 35.9369 29.6625 35.9369 29.8536V31.7933C36.1352 31.9915 36.3263 32.1048 36.5174 32.1331C36.7157 32.1685 36.9033 32.1898 37.0838 32.1898C37.0838 32.4446 37.0979 32.6889 37.1263 32.926C37.1617 33.1702 37.1581 33.3649 37.1121 33.5065C37.0625 33.6552 36.9139 33.733 36.659 33.733C36.659 33.733 36.5599 33.733 36.3617 33.733C36.1706 33.7401 35.9794 33.7472 35.7812 33.7472C35.6962 33.7472 35.5299 33.7507 35.2856 33.7614C35.0379 33.7684 34.7689 33.7755 34.4786 33.7755C34.1954 33.7826 33.9335 33.7932 33.6999 33.8038C33.4627 33.8109 33.2928 33.818 33.1902 33.818C32.992 33.818 32.907 33.6623 32.9353 33.3508C32.9636 33.0464 32.9778 32.6995 32.9778 32.303C32.9778 32.303 33.0274 32.3172 33.1335 32.3455C33.2468 32.3809 33.353 32.3951 33.4592 32.388C33.5618 32.3774 33.6149 32.3101 33.6149 32.1898C33.7459 31.9243 33.8132 31.6305 33.8132 31.3119C33.8202 30.9898 33.8132 30.6642 33.7848 30.335C33.7636 30.0129 33.7565 29.7262 33.7565 29.4713C33.7565 29.0926 33.7424 28.6855 33.714 28.2395C33.6928 27.7864 33.6716 27.3617 33.6433 26.9652C33.622 26.5688 33.6149 26.2396 33.6149 25.9741C33.6149 25.5777 33.6079 25.1352 33.6008 24.6432C33.6008 24.1548 33.6008 23.6875 33.6008 23.2415C33.6008 22.8168 33.5725 22.431 33.5158 22.0805C33.4663 21.7337 33.445 21.3549 33.445 20.9478C33.445 20.7602 33.4061 20.562 33.3318 20.3532C33.2645 20.1479 33.2327 19.9426 33.2327 19.7444V19.3621C33.2327 19.1568 33.2327 18.9586 33.2327 18.7674C33.2327 18.5692 33.2327 18.371 33.2327 18.1728C33.2327 17.9852 33.222 17.8436 33.2043 17.748C33.1937 17.6454 33.1902 17.4613 33.1902 17.1958C33.1902 16.9233 33.1265 16.6826 33.0061 16.4737C32.8928 16.2578 32.8362 16.049 32.8362 15.8508C32.4398 15.8508 32.1424 15.7729 31.9442 15.6101C31.7531 15.4508 31.6611 15.2703 31.6611 15.072C31.6611 14.8844 31.7212 14.7181 31.8451 14.5765C31.9761 14.4349 32.1354 14.3641 32.3265 14.3641C32.4752 14.3641 32.5743 14.3606 32.6238 14.35C32.6805 14.3429 32.7442 14.3323 32.8221 14.3216C32.8964 14.3039 33.0344 14.2898 33.2327 14.2792C33.4203 14.2721 33.6079 14.2862 33.799 14.3216C33.9866 14.35 34.2167 14.3641 34.4928 14.3641C34.6698 14.3641 34.8078 14.4207 34.9034 14.534C34.9954 14.6473 35.0626 14.7676 35.1016 14.888C35.1476 15.0119 35.1724 15.072 35.1724 15.072C35.6821 15.8472 36.1245 16.6649 36.5033 17.5215C36.8891 18.371 37.2466 19.2488 37.5793 20.155C37.9191 21.054 38.2766 21.9531 38.6554 22.8593C38.8536 23.4539 39.0447 23.9601 39.2359 24.3742C39.4341 24.7813 39.6359 25.1777 39.8447 25.5635C39.8447 25.7724 39.873 25.96 39.9297 26.1299C39.9863 26.2998 40.0642 26.5122 40.1704 26.767C40.2164 26.8909 40.2872 27.1139 40.3827 27.4325C40.4854 27.744 40.5951 28.0696 40.7084 28.4094C40.8287 28.7421 40.9526 28.9935 41.0765 29.174C41.1331 29.2377 41.1544 29.174 41.1473 28.9758C41.1367 28.7775 41.119 28.5085 41.0907 28.1687C41.0694 27.8289 41.0482 27.4962 41.0199 27.1635C40.9986 26.8237 40.9916 26.5617 40.9916 26.3706C40.9916 25.4007 41.0128 24.3388 41.0623 23.1849C41.1084 22.0239 41.1331 20.8594 41.1331 19.6877V19.3055C41.1331 18.9019 41.0977 18.5373 41.034 18.2152C40.9774 17.8967 40.9137 17.5746 40.85 17.2525C40.7827 16.9233 40.7509 16.5658 40.7509 16.1764C40.5597 15.9888 40.3615 15.8154 40.1562 15.6525C39.958 15.4826 39.7633 15.3977 39.5757 15.3977C39.4412 15.2773 39.3208 15.1782 39.2076 15.1004C39.1014 15.0154 39.0377 14.9128 39.0094 14.7889C38.9881 14.6685 39.0448 14.4774 39.1793 14.2225C39.3102 14.2225 39.3846 14.2331 39.4058 14.2508C39.4341 14.2721 39.4695 14.2898 39.5191 14.3075C39.5757 14.3287 39.6925 14.3358 39.873 14.3358C40.1739 14.3358 40.3969 14.3181 40.5385 14.2792C40.6801 14.2438 40.7509 14.2225 40.7509 14.2225C40.9668 14.2721 41.2075 14.2862 41.4729 14.265C41.7455 14.2473 42.0145 14.2296 42.28 14.2084C42.5525 14.1907 42.7932 14.2084 43.0021 14.265C43.218 14.3146 43.3737 14.4349 43.4693 14.6331Z" fill="#000"/>
  <path d="M52.6346 17.5215C52.5107 17.3799 52.4435 17.2171 52.4364 17.0259C52.4258 16.8277 52.4258 16.6295 52.4364 16.4313C52.4435 16.226 52.3798 16.0631 52.2382 15.9499C52.04 15.8472 51.9054 15.7764 51.8417 15.7375C51.7745 15.7021 51.6435 15.6348 51.4453 15.5393C51.0382 15.5393 50.5745 15.5605 50.0578 15.5959C49.5374 15.6242 49.0808 15.7446 48.6844 15.9499C48.4755 16.1304 48.3623 16.3711 48.3446 16.672C48.3339 16.9764 48.3304 17.3516 48.3304 17.8046C48.3304 18.3639 48.3198 18.817 48.3021 19.1639C48.2809 19.5143 48.2738 19.8824 48.2738 20.2682C48.2738 20.6753 48.3021 21.0399 48.3587 21.3584C48.4224 21.6806 48.4614 21.9779 48.472 22.2504C48.4791 22.5265 48.4154 22.7991 48.2738 23.0716C48.4154 23.1849 48.6207 23.2699 48.8968 23.3265C49.1693 23.376 49.4631 23.4079 49.7746 23.4256C50.0932 23.4362 50.3834 23.4398 50.6383 23.4398C50.6383 23.3088 50.6418 23.153 50.6524 22.9725C50.6701 22.7955 50.709 22.6327 50.7657 22.4911C50.8223 22.3425 50.9143 22.2646 51.0489 22.2646C51.2471 22.2646 51.3745 22.2858 51.4311 22.3212C51.4949 22.3495 51.6329 22.4628 51.8417 22.661C51.7355 22.8522 51.6895 23.1212 51.7001 23.4681C51.7178 23.8185 51.7462 24.176 51.7851 24.5441C51.8205 24.9052 51.8205 25.2096 51.7851 25.4644C51.7462 25.7193 51.6329 25.8467 51.4453 25.8467C51.4453 25.8467 51.378 25.8113 51.2471 25.7334C51.1126 25.6485 50.9781 25.5458 50.8365 25.422C50.702 25.3016 50.6383 25.1742 50.6383 25.0397V24.6432C50.525 24.6432 50.3338 24.6432 50.0719 24.6432C49.8064 24.6432 49.541 24.6432 49.279 24.6432C49.0136 24.6432 48.8153 24.6432 48.6844 24.6432C48.5499 25.0397 48.4791 25.4751 48.472 25.9458C48.4614 26.4201 48.4755 26.8909 48.5145 27.3617C48.5499 27.836 48.5711 28.2643 48.5711 28.6501C48.5711 29.0536 48.5782 29.4784 48.5994 29.9244C48.6171 30.3668 48.6348 30.7881 48.6561 31.1845C48.6738 31.5809 48.6844 31.9066 48.6844 32.1614C49.279 32.3597 49.8029 32.4729 50.256 32.5012C50.7161 32.5366 51.2471 32.5579 51.8417 32.5579C52.04 32.4517 52.1568 32.3101 52.1957 32.1331C52.2311 31.9632 52.2453 31.7721 52.2382 31.5668C52.2382 31.3686 52.2559 31.1774 52.2948 31.0004C52.3302 30.8199 52.4435 30.6819 52.6346 30.5898C52.9072 30.5898 53.1018 30.6925 53.2151 30.9013C53.3284 31.1172 53.3921 31.3756 53.4133 31.68C53.431 31.9915 53.4417 32.2818 53.4417 32.5579C53.4417 32.7561 53.3567 32.9543 53.1868 33.1525C53.0169 33.3508 52.8328 33.549 52.6346 33.7472H50.6383C49.6542 33.7472 48.6561 33.733 47.6366 33.7047C46.6172 33.6764 45.5129 33.5561 44.3235 33.3508V32.5579C44.5288 32.5579 44.7978 32.5579 45.1306 32.5579C45.4598 32.5579 45.7182 32.5579 45.9093 32.5579C46.0509 31.765 46.111 31.0075 46.0934 30.2925C46.0827 29.574 46.0509 28.8554 45.9942 28.1262C45.9376 27.4006 45.9093 26.6396 45.9093 25.8467V25.0397C45.9093 24.4379 45.9093 23.822 45.9093 23.1991C45.9093 22.569 45.9093 21.8611 45.9093 21.0753V19.5037C45.9093 18.909 45.9093 18.3144 45.9093 17.7197C45.9093 17.118 45.9093 16.5268 45.9093 15.9499H44.3235C44.3235 15.9499 44.3235 15.8862 44.3235 15.7517C44.3235 15.6101 44.3235 15.4791 44.3235 15.3552C44.3235 15.2242 44.3235 15.157 44.3235 15.157C45.1235 14.9517 45.9164 14.8136 46.7022 14.7464C47.4951 14.6827 48.2809 14.5553 49.0667 14.3641H53.0311C53.0311 14.3641 53.0948 14.4455 53.2293 14.6048C53.3709 14.7676 53.4417 14.9517 53.4417 15.157C53.4417 15.3481 53.47 15.5782 53.5266 15.8508C53.5832 16.1269 53.6151 16.3888 53.6257 16.6436C53.6434 16.8914 53.5832 17.0967 53.4417 17.2666C53.3071 17.4365 53.0381 17.5215 52.6346 17.5215Z" fill="#000"/>
  <path d="M69.2895 14.9446C69.155 15.2101 69.0275 15.4048 68.9072 15.5251C68.7939 15.649 68.6984 15.7517 68.624 15.8366C68.5462 15.9145 68.5108 16.0171 68.5108 16.1481C68.5108 17.8861 68.4471 19.5992 68.3267 21.2877C68.2028 22.9796 68.1002 24.6928 68.0152 26.4272C67.9303 28.1546 67.9515 29.9598 68.086 31.85C68.086 32.0482 68.1002 32.1544 68.1285 32.1756C68.1568 32.2039 68.2842 32.2252 68.5108 32.2464C68.7161 32.2535 68.8506 32.2535 68.9072 32.2464C68.9638 32.2464 69.0913 32.2464 69.2895 32.2464C69.2895 32.2464 69.3603 32.2464 69.5019 32.2464C69.6434 32.2535 69.8346 32.2535 70.0824 32.2464H70.5071C70.5071 31.8287 70.5071 31.4252 70.5071 31.0288C70.5071 30.6323 70.5071 30.2359 70.5071 29.8394V28.2254C70.6381 28.0944 70.7655 28.0378 70.8894 28.0555C71.0098 28.0661 71.1089 28.0979 71.1867 28.1546C71.2717 28.2041 71.3142 28.2254 71.3142 28.2254C71.5761 28.4802 71.7283 28.8165 71.7672 29.2306C71.8132 29.6554 71.8132 30.0978 71.7672 30.5615C71.7283 31.0217 71.7106 31.4535 71.7106 31.85C71.7106 31.9809 71.7318 32.1473 71.7814 32.3455C71.838 32.5437 71.8699 32.7419 71.8805 32.9402C71.8982 33.1455 71.8416 33.3224 71.7106 33.464C70.9071 33.595 70.1036 33.6623 69.3036 33.6623C68.5108 33.6623 67.7391 33.6623 66.9958 33.6623C66.2596 33.6623 65.5552 33.7224 64.8862 33.8463C64.6773 33.6552 64.4897 33.5242 64.3198 33.4499C64.1499 33.3826 64.065 33.2446 64.065 33.0393C64.065 32.8411 64.1499 32.7207 64.3198 32.6853C64.4897 32.657 64.6773 32.6428 64.8862 32.6428C65.0738 32.434 65.1835 32.211 65.2118 31.9774C65.2472 31.7508 65.2684 31.4394 65.2684 31.0429C65.41 30.3633 65.5021 29.6271 65.5516 28.8342C65.6083 28.0342 65.6401 27.2272 65.6507 26.4131C65.6684 25.6025 65.679 24.8662 65.679 24.2043V23.7796C65.679 23.1778 65.679 22.5761 65.679 21.9814C65.679 21.3868 65.679 20.7921 65.679 20.1974C65.679 19.5745 65.6578 18.8949 65.6224 18.1586C65.5941 17.4224 65.4737 16.7534 65.2684 16.1481C65.2684 15.9499 65.187 15.8189 65.0278 15.7517C64.8649 15.6879 64.6738 15.5605 64.4473 15.3694V14.5482C64.4473 14.5482 64.518 14.5482 64.6596 14.5482C64.8083 14.5482 64.8862 14.5482 64.8862 14.5482C65.2826 14.5482 65.7144 14.5305 66.1888 14.4915C66.6595 14.4455 67.1374 14.4066 67.6188 14.3783C68.1072 14.3429 68.5603 14.3464 68.978 14.3924C69.1656 14.4137 69.2647 14.4491 69.2753 14.5057C69.2824 14.5623 69.2895 14.711 69.2895 14.9446Z" fill="#000"/>
  <path d="M81.733 31.8924C81.5985 32.1367 81.4286 32.3667 81.2233 32.5862C81.0251 32.8127 80.8304 32.9756 80.6428 33.0817C79.9986 33.4853 79.3544 33.7189 78.7031 33.7755C78.0589 33.8392 77.4501 33.7684 76.8767 33.5631C76.2997 33.3649 75.79 33.0817 75.3475 32.7136C74.9015 32.3455 74.5617 31.9349 74.3281 31.4818C74.1476 31.1314 73.9529 30.7243 73.7476 30.2642C73.5388 29.8111 73.3299 29.2873 73.1246 28.6926C72.9264 27.9209 72.8131 27.1351 72.7848 26.3423C72.7565 25.5423 72.7424 24.7494 72.7424 23.9636C72.7424 23.5601 72.7176 23.192 72.6716 22.8593C72.622 22.5301 72.6468 22.1018 72.7424 21.5708C72.7884 21.2983 72.8344 21.0293 72.8839 20.7638C72.93 20.5019 72.9547 20.2647 72.9547 20.0559C73.0574 19.6417 73.1282 19.2453 73.1671 18.8665C73.2025 18.4913 73.3264 18.2011 73.5352 18.0029C73.8255 17.617 74.1087 17.1958 74.3848 16.7428C74.6679 16.2897 74.9723 15.8755 75.3051 15.4968C75.6449 15.111 76.0555 14.8136 76.5368 14.6048C77.0182 14.3995 77.6058 14.3464 78.3067 14.4491C79.0783 14.4491 79.6942 14.5623 80.1473 14.7889C80.6074 15.0154 81.0428 15.4366 81.4499 16.049C82.0516 16.4454 82.5613 17.0649 82.979 17.9038C83.4038 18.7356 83.6622 19.6594 83.7577 20.6788C83.7931 21.0859 83.8144 21.4257 83.8144 21.6983C83.8214 21.9637 83.8285 22.3212 83.8285 22.7743C83.8285 23.369 83.8179 24.0203 83.8002 24.7282C83.7896 25.429 83.6905 26.1794 83.5029 26.9794C83.294 27.9634 83.0498 28.8448 82.7666 29.6271C82.4835 30.4093 82.1366 31.1633 81.733 31.8924ZM80.0057 31.6234C80.1084 31.3579 80.2252 31.0288 80.3597 30.6323C80.5013 30.243 80.6322 29.843 80.7561 29.4288C80.8871 29.0112 80.9862 28.6466 81.0534 28.3245C81.2517 27.7298 81.3649 27.1351 81.3932 26.5405C81.4286 25.9458 81.4499 25.3512 81.4499 24.7565C81.4499 24.353 81.4676 24.0132 81.5065 23.7371C81.5525 23.4539 81.5773 23.1212 81.5773 22.7318C81.5773 22.3354 81.5525 21.9496 81.5065 21.5708C81.4676 21.185 81.4499 20.7921 81.4499 20.3957C81.2517 19.9921 81.1171 19.5957 81.0534 19.2063C80.9862 18.8099 80.8481 18.4099 80.6428 18.0029C80.519 17.7303 80.388 17.4436 80.2464 17.1392C80.1119 16.8383 79.9561 16.5587 79.7792 16.3038C79.6093 16.0419 79.3863 15.8437 79.1137 15.7092C78.8659 15.7092 78.6748 15.7056 78.5332 15.695C78.3916 15.6879 78.25 15.6773 78.1085 15.6667C77.9739 15.649 77.7757 15.6384 77.5138 15.6384C77.1067 16.0348 76.7846 16.4454 76.551 16.8702C76.3245 17.2879 76.1121 17.7905 75.9139 18.3851C75.705 18.7922 75.5811 19.1922 75.5458 19.5886C75.5174 19.9851 75.5033 20.3815 75.5033 20.7779C75.3794 21.8363 75.3263 22.884 75.3475 23.9212C75.3652 24.9618 75.4325 25.9529 75.5458 26.8945C75.659 27.8395 75.7794 28.7032 75.9139 29.4855C76.1121 29.889 76.2395 30.2713 76.2962 30.6323C76.3599 30.9898 76.4979 31.273 76.7068 31.4818C76.8377 31.4818 76.9191 31.5137 76.9474 31.5809C76.9758 31.6447 76.9935 31.7261 77.0041 31.8216C77.0112 31.9137 77.0643 32.0092 77.1598 32.1048C77.3085 32.2535 77.5209 32.349 77.797 32.388C78.0801 32.434 78.3775 32.4234 78.689 32.3597C79.0075 32.303 79.2872 32.2075 79.5243 32.0765C79.7685 31.9526 79.9278 31.8004 80.0057 31.6234Z" fill="#000"/>
  <path d="M88.4885 30.9438C88.6088 31.0748 88.7893 31.2164 89.0265 31.3686C89.2601 31.5172 89.522 31.6128 89.8052 31.6517C90.0884 31.6977 90.3786 31.6163 90.6831 31.411C91.0406 31.1456 91.3131 30.781 91.5042 30.3208C91.6918 29.8571 91.8228 29.358 91.9007 28.82C91.975 28.2749 92.0175 27.7369 92.0281 27.2059C92.0458 26.6679 92.0564 26.2007 92.0564 25.8042V19.886C92.0564 19.3585 92.0777 18.8453 92.1272 18.3427C92.1839 17.833 92.2157 17.3728 92.2263 16.9551C92.244 16.541 92.1874 16.2047 92.0564 15.9499C91.8582 15.734 91.6777 15.6101 91.5184 15.5817C91.3556 15.5464 91.2777 15.5251 91.2777 15.5251C91.2777 15.3941 91.2282 15.2419 91.1361 15.072C91.0512 14.9021 90.9875 14.757 90.9521 14.6331C90.9131 14.5128 90.9662 14.4491 91.1078 14.4491C91.5396 14.4491 92.021 14.4314 92.552 14.3924C93.09 14.3464 93.5749 14.3358 94.0103 14.3641C94.4988 14.3747 94.8528 14.4597 95.0722 14.619C95.2988 14.7818 95.4191 14.9552 95.4403 15.1428C95.458 15.334 95.3908 15.4826 95.2421 15.5959C94.966 15.8154 94.782 16.1304 94.6899 16.5445C94.605 16.9516 94.5625 17.4082 94.5625 17.9179C94.5625 18.4276 94.5625 18.9586 94.5625 19.5037C94.5625 20.0417 94.5094 20.5585 94.4068 21.047V24.983C94.4068 24.983 94.4068 25.0538 94.4068 25.1954C94.4068 25.337 94.4068 25.4078 94.4068 25.4078C94.4068 26.59 94.3289 27.6519 94.1802 28.5935C94.028 29.535 93.713 30.4483 93.2316 31.3261C93.0688 31.6447 92.8387 31.9915 92.5378 32.3597C92.244 32.7349 91.8901 33.0534 91.4759 33.3083C91.0689 33.5631 90.6016 33.6906 90.0742 33.6906C89.9397 33.6906 89.8548 33.6941 89.8194 33.7047C89.7804 33.7118 89.7238 33.7189 89.6495 33.7189C89.5716 33.726 89.4017 33.733 89.1398 33.733C88.4956 33.6269 87.9717 33.372 87.5682 32.9685C87.1611 32.572 86.8107 32.1544 86.5204 31.7225C86.301 31.3544 86.1665 30.9721 86.1098 30.5757C86.0532 30.1863 86.0107 29.7863 85.9824 29.3722C85.9541 28.9545 85.8762 28.5581 85.7559 28.1687V18.3002C85.7559 17.8967 85.77 17.5144 85.7983 17.1534C85.8267 16.7852 85.8125 16.3852 85.7559 15.9499C85.7346 15.7906 85.6603 15.6773 85.5293 15.6101C85.4054 15.5357 85.2674 15.4685 85.1187 15.4118C84.9665 15.3552 84.8356 15.2809 84.7223 15.1853C84.609 15.0827 84.5524 14.9375 84.5524 14.7464C84.74 14.5482 84.9559 14.442 85.2037 14.4207C85.4479 14.403 85.7594 14.3853 86.1382 14.3641C86.393 14.3358 86.6762 14.3181 86.9877 14.3075C87.2991 14.2898 87.5894 14.3039 87.8655 14.35C88.1487 14.3995 88.3787 14.5128 88.5593 14.6898C88.7009 14.8136 88.7044 15.0012 88.5734 15.2561C88.4495 15.5039 88.2903 15.734 88.092 15.9499V18.3002C88.092 18.8949 88.092 19.486 88.092 20.07C88.092 20.6576 88.092 21.2558 88.092 21.8682C88.092 22.654 88.0956 23.3619 88.1062 23.9919C88.1133 24.6149 88.1204 25.1529 88.1204 25.606C88.1204 26.59 88.1274 27.5245 88.1487 28.4094C88.177 29.2943 88.2903 30.1403 88.4885 30.9438Z" fill="#000"/>
  <path d="M104.349 22.9725C104.763 23.4929 105.064 24.1406 105.255 24.9123C105.453 25.6768 105.584 26.498 105.652 27.3758C105.726 28.2537 105.786 29.1244 105.836 29.9952C105.882 30.8624 105.956 31.6659 106.062 32.4021C106.278 32.4021 106.466 32.4163 106.629 32.4446C106.788 32.4729 106.869 32.5897 106.869 32.7986C106.869 33.1101 106.774 33.3366 106.586 33.4782C106.406 33.6198 106.168 33.7047 105.878 33.733C105.584 33.7614 105.269 33.7543 104.93 33.7189C104.597 33.6906 104.282 33.6552 103.981 33.6198C103.772 33.4109 103.662 33.2021 103.655 32.9968C103.655 32.788 103.691 32.5437 103.769 32.2606C103.843 31.9845 103.903 31.6376 103.953 31.2128C104.009 30.7951 103.984 30.2713 103.882 29.6412C103.804 29.1103 103.769 28.5758 103.769 28.0271C103.769 27.4714 103.73 26.9298 103.655 26.3989C103.588 25.8609 103.393 25.3582 103.075 24.8839C102.912 24.668 102.792 24.484 102.707 24.3317C102.622 24.1725 102.469 23.9884 102.254 23.7796C102.254 23.5636 102.162 23.4221 101.985 23.3548C101.815 23.2911 101.623 23.1637 101.418 22.9725C101.209 22.9725 101.022 22.9938 100.852 23.0292C100.689 23.0575 100.611 23.1672 100.611 23.3548C100.47 24.0557 100.402 24.7813 100.413 25.5352C100.42 26.2927 100.455 27.0183 100.512 27.7156C100.576 28.4165 100.611 29.0395 100.611 29.5987C100.611 30.0306 100.625 30.4518 100.654 30.8589C100.689 31.273 100.802 31.6942 100.993 32.119C100.993 32.2499 101.064 32.349 101.206 32.4163C101.347 32.4906 101.482 32.5614 101.616 32.6287C101.758 32.6924 101.829 32.7915 101.829 32.926C101.829 33.1313 101.818 33.3083 101.8 33.4499C101.79 33.5915 101.68 33.6623 101.475 33.6623C101.209 33.6623 100.859 33.6375 100.427 33.5915C100.002 33.5525 99.5776 33.5384 99.1528 33.549C98.7281 33.5561 98.3776 33.6339 98.1051 33.7755C97.6803 33.7755 97.3476 33.7366 97.114 33.6623C96.8768 33.595 96.6503 33.3508 96.4344 32.926C96.6503 32.7278 96.8591 32.6074 97.0573 32.572C97.2626 32.5437 97.4715 32.5296 97.6803 32.5296V25.4503C97.6803 25.1777 97.7086 24.9052 97.7653 24.6291C97.8219 24.3459 97.8538 24.0698 97.8644 23.7937C97.8821 23.5212 97.8219 23.2486 97.6803 22.9725C97.6803 22.746 97.698 22.5832 97.737 22.477C97.7724 22.3637 97.7971 22.1655 97.8077 21.8823C97.8538 21.2877 97.8644 20.7319 97.8361 20.2116C97.8077 19.6948 97.7724 19.1603 97.737 18.6117C97.698 18.056 97.6803 17.4294 97.6803 16.7286C97.2733 16.7286 96.9193 16.6826 96.6184 16.587C96.314 16.4844 96.1654 16.3286 96.1654 16.1198C96.1654 15.7056 96.2255 15.4189 96.3494 15.2561C96.4698 15.0862 96.668 14.9835 96.9441 14.9446C97.2166 14.8986 97.5564 14.8738 97.9635 14.8738C98.1688 14.8738 98.3316 14.8384 98.4449 14.7606C98.5582 14.6862 98.7068 14.6473 98.898 14.6473C99.528 14.5446 100.201 14.4845 100.908 14.4632C101.623 14.4455 102.31 14.5022 102.961 14.6331C103.613 14.757 104.172 14.9835 104.646 15.3127C105.117 15.6455 105.425 16.1162 105.567 16.7286C105.63 16.9834 105.694 17.302 105.751 17.6772C105.814 18.056 105.839 18.4524 105.822 18.8665C105.811 19.2736 105.726 19.6665 105.567 20.0417C105.453 20.3249 105.269 20.6293 105.014 20.9478C104.767 21.2593 104.547 21.5142 104.349 21.7124L103.924 22.1372C103.924 22.2717 103.956 22.3743 104.023 22.4487C104.098 22.5159 104.168 22.5867 104.236 22.661C104.31 22.7283 104.349 22.8309 104.349 22.9725ZM100.215 15.9216C100.215 16.7534 100.229 17.5639 100.257 18.3568C100.285 19.1426 100.321 20.0382 100.37 21.047C100.37 21.1885 100.47 21.2593 100.668 21.2593C100.873 21.2593 101.11 21.2169 101.376 21.1319C101.648 21.0399 101.907 20.9302 102.154 20.8063C102.399 20.6859 102.572 20.5726 102.678 20.4665C102.678 20.2505 102.728 19.9957 102.834 19.7019C102.937 19.401 103.018 19.1072 103.075 18.8241C103.121 18.5126 103.138 18.286 103.131 18.1445C103.131 18.0029 103.121 17.8719 103.103 17.748C103.082 17.6277 103.075 17.4294 103.075 17.1534C103.075 16.8525 102.99 16.6224 102.82 16.4596C102.657 16.2897 102.469 16.1021 102.254 15.8932C102.112 15.8932 101.903 15.9003 101.631 15.9074C101.365 15.9074 101.096 15.9145 100.824 15.9216C100.547 15.9216 100.346 15.9216 100.215 15.9216Z" fill="#000"/>
  <path d="M116.04 17.5215C115.916 17.3799 115.849 17.2171 115.842 17.0259C115.831 16.8277 115.831 16.6295 115.842 16.4313C115.849 16.226 115.785 16.0631 115.644 15.9499C115.445 15.8472 115.311 15.7764 115.247 15.7375C115.18 15.7021 115.049 15.6348 114.851 15.5393C114.444 15.5393 113.98 15.5605 113.463 15.5959C112.943 15.6242 112.486 15.7446 112.09 15.9499C111.881 16.1304 111.768 16.3711 111.75 16.672C111.739 16.9764 111.736 17.3516 111.736 17.8046C111.736 18.3639 111.725 18.817 111.708 19.1639C111.686 19.5143 111.679 19.8824 111.679 20.2682C111.679 20.6753 111.708 21.0399 111.764 21.3584C111.828 21.6806 111.867 21.9779 111.878 22.2504C111.885 22.5265 111.821 22.7991 111.679 23.0716C111.821 23.1849 112.026 23.2699 112.302 23.3265C112.575 23.376 112.869 23.4079 113.18 23.4256C113.499 23.4362 113.789 23.4398 114.044 23.4398C114.044 23.3088 114.047 23.153 114.058 22.9725C114.076 22.7955 114.115 22.6327 114.171 22.4911C114.228 22.3425 114.32 22.2646 114.454 22.2646C114.653 22.2646 114.78 22.2858 114.837 22.3212C114.9 22.3495 115.038 22.4628 115.247 22.661C115.141 22.8522 115.095 23.1212 115.106 23.4681C115.123 23.8185 115.152 24.176 115.191 24.5441C115.226 24.9052 115.226 25.2096 115.191 25.4644C115.152 25.7193 115.038 25.8467 114.851 25.8467C114.851 25.8467 114.784 25.8113 114.653 25.7334C114.518 25.6485 114.384 25.5458 114.242 25.422C114.107 25.3016 114.044 25.1742 114.044 25.0397V24.6432C113.931 24.6432 113.739 24.6432 113.477 24.6432C113.212 24.6432 112.946 24.6432 112.685 24.6432C112.419 24.6432 112.221 24.6432 112.09 24.6432C111.955 25.0397 111.885 25.4751 111.878 25.9458C111.867 26.4201 111.881 26.8909 111.92 27.3617C111.955 27.836 111.977 28.2643 111.977 28.6501C111.977 29.0536 111.984 29.4784 112.005 29.9244C112.023 30.3668 112.04 30.7881 112.062 31.1845C112.079 31.5809 112.09 31.9066 112.09 32.1614C112.685 32.3597 113.208 32.4729 113.661 32.5012C114.122 32.5366 114.653 32.5579 115.247 32.5579C115.445 32.4517 115.562 32.3101 115.601 32.1331C115.637 31.9632 115.651 31.7721 115.644 31.5668C115.644 31.3686 115.661 31.1774 115.7 31.0004C115.736 30.8199 115.849 30.6819 116.04 30.5898C116.313 30.5898 116.507 30.6925 116.621 30.9013C116.734 31.1172 116.798 31.3756 116.819 31.68C116.837 31.9915 116.847 32.2818 116.847 32.5579C116.847 32.7561 116.762 32.9543 116.592 33.1525C116.422 33.3508 116.238 33.549 116.04 33.7472H114.044C113.06 33.7472 112.062 33.733 111.042 33.7047C110.023 33.6764 108.918 33.5561 107.729 33.3508V32.5579C107.934 32.5579 108.203 32.5579 108.536 32.5579C108.865 32.5579 109.124 32.5579 109.315 32.5579C109.456 31.765 109.517 31.0075 109.499 30.2925C109.488 29.574 109.456 28.8554 109.4 28.1262C109.343 27.4006 109.315 26.6396 109.315 25.8467V25.0397C109.315 24.4379 109.315 23.822 109.315 23.1991C109.315 22.569 109.315 21.8611 109.315 21.0753V19.5037C109.315 18.909 109.315 18.3144 109.315 17.7197C109.315 17.118 109.315 16.5268 109.315 15.9499H107.729C107.729 15.9499 107.729 15.8862 107.729 15.7517C107.729 15.6101 107.729 15.4791 107.729 15.3552C107.729 15.2242 107.729 15.157 107.729 15.157C108.529 14.9517 109.322 14.8136 110.108 14.7464C110.901 14.6827 111.686 14.5553 112.472 14.3641H116.437C116.437 14.3641 116.5 14.4455 116.635 14.6048C116.776 14.7676 116.847 14.9517 116.847 15.157C116.847 15.3481 116.875 15.5782 116.932 15.8508C116.989 16.1269 117.021 16.3888 117.031 16.6436C117.049 16.8914 116.989 17.0967 116.847 17.2666C116.713 17.4365 116.444 17.5215 116.04 17.5215Z" fill="#000"/>
  <path d="M121.496 15.8083C121.362 16.1976 121.302 16.5941 121.312 16.9976C121.33 17.394 121.369 17.7976 121.425 18.2011C121.482 18.5975 121.503 19.001 121.496 19.4046C121.429 21.408 121.344 23.4822 121.241 25.6343C121.135 27.7864 121.086 29.9598 121.086 32.1614C121.291 32.3667 121.496 32.5048 121.694 32.572C121.9 32.6357 122.094 32.7596 122.275 32.9402C122.275 33.1455 122.194 33.2835 122.034 33.3508C121.882 33.4145 121.701 33.549 121.496 33.7472C121.22 33.6056 120.877 33.5348 120.463 33.5348C120.056 33.5348 119.627 33.5348 119.174 33.5348C118.728 33.5348 118.311 33.4711 117.914 33.3508C117.914 33.3508 117.879 33.3083 117.815 33.2233C117.758 33.1455 117.723 33.0463 117.716 32.926C117.716 32.8021 117.78 32.6853 117.914 32.572C117.914 32.4305 117.949 32.3597 118.027 32.3597C118.102 32.3597 118.201 32.3597 118.325 32.3597C118.445 32.3597 118.565 32.2924 118.679 32.1614C118.82 32.0199 118.884 31.8499 118.877 31.6517C118.866 31.4606 118.827 31.2694 118.764 31.0712C118.707 30.873 118.679 30.7066 118.679 30.5757C118.679 29.9598 118.686 29.3793 118.707 28.8342C118.735 28.2785 118.749 27.7015 118.749 27.1068C118.749 27.1068 118.735 27.0042 118.707 26.7953C118.686 26.59 118.679 26.3812 118.679 26.1724V22.5761C118.679 21.585 118.679 20.5089 118.679 19.3479C118.679 18.1798 118.679 16.9976 118.679 15.8083C118.498 15.8083 118.325 15.7941 118.155 15.7658C117.992 15.7304 117.914 15.6065 117.914 15.3977V14.6048C117.914 14.4845 117.957 14.4278 118.041 14.4349C118.134 14.4455 118.268 14.4774 118.438 14.534C118.615 14.5836 118.834 14.6048 119.089 14.6048C119.362 14.6048 119.698 14.5836 120.094 14.534C120.498 14.4774 120.894 14.4455 121.284 14.4349C121.68 14.4278 122.009 14.4845 122.275 14.6048C122.416 14.7393 122.466 14.9021 122.431 15.1004C122.392 15.2915 122.289 15.4543 122.119 15.5959C121.956 15.7375 121.751 15.8083 121.496 15.8083Z" fill="#000"/>
  <path d="M131.387 22.9725C131.801 23.4929 132.102 24.1406 132.293 24.9123C132.491 25.6768 132.622 26.498 132.69 27.3758C132.764 28.2537 132.824 29.1244 132.874 29.9952C132.92 30.8624 132.994 31.6659 133.1 32.4021C133.316 32.4021 133.504 32.4163 133.667 32.4446C133.826 32.4729 133.907 32.5897 133.907 32.7986C133.907 33.1101 133.812 33.3366 133.624 33.4782C133.444 33.6198 133.206 33.7047 132.916 33.733C132.622 33.7614 132.307 33.7543 131.968 33.7189C131.635 33.6906 131.32 33.6552 131.019 33.6198C130.81 33.4109 130.7 33.2021 130.693 32.9968C130.693 32.788 130.729 32.5437 130.807 32.2606C130.881 31.9845 130.941 31.6376 130.991 31.2128C131.047 30.7951 131.022 30.2713 130.92 29.6412C130.842 29.1103 130.807 28.5758 130.807 28.0271C130.807 27.4714 130.768 26.9298 130.693 26.3989C130.626 25.8609 130.431 25.3582 130.113 24.8839C129.95 24.668 129.83 24.484 129.745 24.3317C129.66 24.1725 129.507 23.9884 129.292 23.7796C129.292 23.5636 129.2 23.4221 129.023 23.3548C128.853 23.2911 128.662 23.1637 128.456 22.9725C128.247 22.9725 128.06 22.9938 127.89 23.0292C127.727 23.0575 127.649 23.1672 127.649 23.3548C127.508 24.0557 127.44 24.7813 127.451 25.5352C127.458 26.2927 127.493 27.0183 127.55 27.7156C127.614 28.4165 127.649 29.0395 127.649 29.5987C127.649 30.0306 127.663 30.4518 127.692 30.8589C127.727 31.273 127.84 31.6942 128.031 32.119C128.031 32.2499 128.102 32.349 128.244 32.4163C128.385 32.4906 128.52 32.5614 128.654 32.6287C128.796 32.6924 128.867 32.7915 128.867 32.926C128.867 33.1313 128.856 33.3083 128.839 33.4499C128.828 33.5915 128.718 33.6623 128.513 33.6623C128.247 33.6623 127.897 33.6375 127.465 33.5915C127.04 33.5525 126.616 33.5384 126.191 33.549C125.766 33.5561 125.416 33.6339 125.143 33.7755C124.718 33.7755 124.386 33.7366 124.152 33.6623C123.915 33.595 123.688 33.3508 123.472 32.926C123.688 32.7278 123.897 32.6074 124.095 32.572C124.301 32.5437 124.51 32.5296 124.718 32.5296V25.4503C124.718 25.1777 124.747 24.9052 124.803 24.6291C124.86 24.3459 124.892 24.0698 124.902 23.7937C124.92 23.5212 124.86 23.2486 124.718 22.9725C124.718 22.746 124.736 22.5832 124.775 22.477C124.81 22.3637 124.835 22.1655 124.846 21.8823C124.892 21.2877 124.902 20.7319 124.874 20.2116C124.846 19.6948 124.81 19.1603 124.775 18.6117C124.736 18.056 124.718 17.4294 124.718 16.7286C124.311 16.7286 123.957 16.6826 123.656 16.587C123.352 16.4844 123.203 16.3286 123.203 16.1198C123.203 15.7056 123.264 15.4189 123.387 15.2561C123.508 15.0862 123.706 14.9835 123.982 14.9446C124.255 14.8986 124.594 14.8738 125.002 14.8738C125.207 14.8738 125.37 14.8384 125.483 14.7606C125.596 14.6862 125.745 14.6473 125.936 14.6473C126.566 14.5446 127.239 14.4845 127.947 14.4632C128.662 14.4455 129.348 14.5022 129.999 14.6331C130.651 14.757 131.21 14.9835 131.684 15.3127C132.155 15.6455 132.463 16.1162 132.605 16.7286C132.668 16.9834 132.732 17.302 132.789 17.6772C132.852 18.056 132.877 18.4524 132.86 18.8665C132.849 19.2736 132.764 19.6665 132.605 20.0417C132.491 20.3249 132.307 20.6293 132.052 20.9478C131.805 21.2593 131.585 21.5142 131.387 21.7124L130.962 22.1372C130.962 22.2717 130.994 22.3743 131.061 22.4487C131.136 22.5159 131.207 22.5867 131.274 22.661C131.348 22.7283 131.387 22.8309 131.387 22.9725ZM127.253 15.9216C127.253 16.7534 127.267 17.5639 127.295 18.3568C127.324 19.1426 127.359 20.0382 127.408 21.047C127.408 21.1885 127.508 21.2593 127.706 21.2593C127.911 21.2593 128.148 21.2169 128.414 21.1319C128.686 21.0399 128.945 20.9302 129.192 20.8063C129.437 20.6859 129.61 20.5726 129.716 20.4665C129.716 20.2505 129.766 19.9957 129.872 19.7019C129.975 19.401 130.056 19.1072 130.113 18.8241C130.159 18.5126 130.176 18.286 130.169 18.1445C130.169 18.0029 130.159 17.8719 130.141 17.748C130.12 17.6277 130.113 17.4294 130.113 17.1534C130.113 16.8525 130.028 16.6224 129.858 16.4596C129.695 16.2897 129.507 16.1021 129.292 15.8932C129.15 15.8932 128.941 15.9003 128.669 15.9074C128.403 15.9074 128.134 15.9145 127.862 15.9216C127.585 15.9216 127.384 15.9216 127.253 15.9216Z" fill="#000"/>
  <path d="M143.8 31.8924C143.666 32.1367 143.496 32.3667 143.291 32.5862C143.092 32.8127 142.898 32.9756 142.71 33.0817C142.066 33.4853 141.422 33.7189 140.77 33.7755C140.126 33.8392 139.517 33.7684 138.944 33.5631C138.367 33.3649 137.857 33.0817 137.415 32.7136C136.969 32.3455 136.629 31.9349 136.395 31.4818C136.215 31.1314 136.02 30.7243 135.815 30.2642C135.606 29.8111 135.397 29.2873 135.192 28.6926C134.994 27.9209 134.88 27.1351 134.852 26.3423C134.824 25.5423 134.81 24.7494 134.81 23.9636C134.81 23.5601 134.785 23.192 134.739 22.8593C134.689 22.5301 134.714 22.1018 134.81 21.5708C134.856 21.2983 134.902 21.0293 134.951 20.7638C134.997 20.5019 135.022 20.2647 135.022 20.0559C135.125 19.6417 135.195 19.2453 135.234 18.8665C135.27 18.4913 135.394 18.2011 135.602 18.0029C135.893 17.617 136.176 17.1958 136.452 16.7428C136.735 16.2897 137.039 15.8755 137.372 15.4968C137.712 15.111 138.123 14.8136 138.604 14.6048C139.085 14.3995 139.673 14.3464 140.374 14.4491C141.145 14.4491 141.761 14.5623 142.214 14.7889C142.675 15.0154 143.11 15.4366 143.517 16.049C144.119 16.4454 144.628 17.0649 145.046 17.9038C145.471 18.7356 145.729 19.6594 145.825 20.6788C145.86 21.0859 145.882 21.4257 145.882 21.6983C145.889 21.9637 145.896 22.3212 145.896 22.7743C145.896 23.369 145.885 24.0203 145.867 24.7282C145.857 25.429 145.758 26.1794 145.57 26.9794C145.361 27.9634 145.117 28.8448 144.834 29.6271C144.551 30.4093 144.204 31.1633 143.8 31.8924ZM142.073 31.6234C142.176 31.3579 142.292 31.0288 142.427 30.6323C142.568 30.243 142.699 29.843 142.823 29.4288C142.954 29.0112 143.053 28.6466 143.121 28.3245C143.319 27.7298 143.432 27.1351 143.46 26.5405C143.496 25.9458 143.517 25.3512 143.517 24.7565C143.517 24.353 143.535 24.0132 143.574 23.7371C143.62 23.4539 143.644 23.1212 143.644 22.7318C143.644 22.3354 143.62 21.9496 143.574 21.5708C143.535 21.185 143.517 20.7921 143.517 20.3957C143.319 19.9921 143.184 19.5957 143.121 19.2063C143.053 18.8099 142.915 18.4099 142.71 18.0029C142.586 17.7303 142.455 17.4436 142.314 17.1392C142.179 16.8383 142.023 16.5587 141.846 16.3038C141.676 16.0419 141.453 15.8437 141.181 15.7092C140.933 15.7092 140.742 15.7056 140.6 15.695C140.459 15.6879 140.317 15.6773 140.176 15.6667C140.041 15.649 139.843 15.6384 139.581 15.6384C139.174 16.0348 138.852 16.4454 138.618 16.8702C138.392 17.2879 138.179 17.7905 137.981 18.3851C137.772 18.7922 137.648 19.1922 137.613 19.5886C137.585 19.9851 137.57 20.3815 137.57 20.7779C137.447 21.8363 137.393 22.884 137.415 23.9212C137.432 24.9618 137.5 25.9529 137.613 26.8945C137.726 27.8395 137.847 28.7032 137.981 29.4855C138.179 29.889 138.307 30.2713 138.363 30.6323C138.427 30.9898 138.565 31.273 138.774 31.4818C138.905 31.4818 138.986 31.5137 139.015 31.5809C139.043 31.6447 139.061 31.7261 139.071 31.8216C139.078 31.9137 139.131 32.0092 139.227 32.1048C139.376 32.2535 139.588 32.349 139.864 32.388C140.147 32.434 140.445 32.4234 140.756 32.3597C141.075 32.303 141.354 32.2075 141.591 32.0765C141.836 31.9526 141.995 31.8004 142.073 31.6234Z" fill="#000"/>
</svg>